<?xml version="1.0" ?><svg fill="none" height="24" viewBox="0 0 24 24" width="24" xmlns="http://www.w3.org/2000/svg"><path clip-rule="evenodd" d="M3 1C2.44772 1 2 1.44772 2 2V22C2 22.5523 2.44772 23 3 23H6C6.55228 23 7 22.5523 7 22V2C7 1.44772 6.55228 1 6 1H3Z" fill="black" fill-rule="evenodd"/><path clip-rule="evenodd" d="M8.5 2C7.94772 2 7.5 2.44772 7.5 3V13C7.5 13.5523 7.94772 14 8.5 14H21C21.3844 14 21.7348 13.7797 21.9013 13.4332C22.0678 13.0867 22.021 12.6755 21.7809 12.3753L18.2806 8L21.7809 3.6247C22.021 3.32453 22.0678 2.91328 21.9013 2.56681C21.7348 2.22035 21.3844 2 21 2H8.5Z" fill="black" fill-rule="evenodd"/></svg>