<?xml version="1.0" ?><svg fill="none" height="24" viewBox="0 0 24 24" width="24" xmlns="http://www.w3.org/2000/svg"><path clip-rule="evenodd" d="M1 12C1 5.92487 5.92487 1 12 1C18.0751 1 23 5.92487 23 12C23 18.0751 18.0751 23 12 23C5.92487 23 1 18.0751 1 12ZM12 4.5C7.85786 4.5 4.5 7.85786 4.5 12C4.5 16.1421 7.85786 19.5 12 19.5C16.1421 19.5 19.5 16.1421 19.5 12C19.5 7.85786 16.1421 4.5 12 4.5ZM10.5735 7.68077C10.268 7.46694 9.86892 7.44083 9.53819 7.61302C9.20746 7.78522 9 8.12713 9 8.5V15.5C9 15.8729 9.20746 16.2148 9.53819 16.387C9.86892 16.5592 10.268 16.5331 10.5735 16.3192L15.5735 12.8192C15.8408 12.6321 16 12.3263 16 12C16 11.6737 15.8408 11.3679 15.5735 11.1808L10.5735 7.68077Z" fill="black" fill-rule="evenodd"/></svg>